<svg xmlns="http://www.w3.org/2000/svg" width="800" height="280" viewBox="0 0 800 280">
  <defs>
    <linearGradient id="bg" x1="0%" y1="0%" x2="100%" y2="100%">
      <stop offset="0%" style="stop-color:#0d1117"/>
      <stop offset="100%" style="stop-color:#161b22"/>
    </linearGradient>
    <marker id="arrowhead" markerWidth="10" markerHeight="7" refX="9" refY="3.5" orient="auto">
      <polygon points="0 0, 10 3.5, 0 7" fill="#e94560" opacity="0.8"/>
    </marker>
  </defs>
  <rect width="800" height="280" fill="url(#bg)" rx="12"/>
  <text x="400" y="265" text-anchor="middle" font-family="Segoe UI, Arial, sans-serif" font-size="11" fill="#666">Architecture · Cybersecurity Alert Summarizer</text>
  <line x1="190" y1="80" x2="250" y2="55" stroke="#e94560" stroke-width="1.5" marker-end="url(#arrowhead)" opacity="0.7"/>
  <line x1="190" y1="80" x2="250" y2="125" stroke="#e94560" stroke-width="1.5" marker-end="url(#arrowhead)" opacity="0.7"/>
  <line x1="390" y1="55" x2="450" y2="55" stroke="#e94560" stroke-width="1.5" marker-end="url(#arrowhead)" opacity="0.7"/>
  <line x1="390" y1="125" x2="450" y2="125" stroke="#e94560" stroke-width="1.5" marker-end="url(#arrowhead)" opacity="0.7"/>
  <line x1="390" y1="55" x2="450" y2="210" stroke="#e94560" stroke-width="1.5" marker-end="url(#arrowhead)" opacity="0.7"/>
  <line x1="390" y1="125" x2="450" y2="210" stroke="#e94560" stroke-width="1.5" marker-end="url(#arrowhead)" opacity="0.7"/>
  <line x1="590" y1="55" x2="650" y2="125" stroke="#e94560" stroke-width="1.5" marker-end="url(#arrowhead)" opacity="0.7"/>
  <line x1="590" y1="125" x2="650" y2="130" stroke="#e94560" stroke-width="1.5" marker-end="url(#arrowhead)" opacity="0.7"/>
  <line x1="590" y1="220" x2="650" y2="140" stroke="#e94560" stroke-width="1.5" marker-end="url(#arrowhead)" opacity="0.7"/>
  <rect x="50" y="50" width="140" height="60" rx="8" fill="#e94560" stroke="none" stroke-width="0" opacity="0.9"/>
  <text x="120" y="85" text-anchor="middle" font-family="Segoe UI, Arial, sans-serif" font-size="11" font-weight="bold" fill="white">Alert Input</text>
  <rect x="250" y="30" width="140" height="50" rx="8" fill="#ff6b6b" stroke="none" stroke-width="0" opacity="0.9"/>
  <text x="320" y="60" text-anchor="middle" font-family="Segoe UI, Arial, sans-serif" font-size="11" font-weight="bold" fill="white">IOC Extractor</text>
  <rect x="250" y="100" width="140" height="50" rx="8" fill="#ff6b6b" stroke="none" stroke-width="0" opacity="0.9"/>
  <text x="320" y="130" text-anchor="middle" font-family="Segoe UI, Arial, sans-serif" font-size="11" font-weight="bold" fill="white">CVE Lookup</text>
  <rect x="450" y="30" width="140" height="50" rx="8" fill="#c0392b" stroke="none" stroke-width="0" opacity="0.9"/>
  <text x="520" y="60" text-anchor="middle" font-family="Segoe UI, Arial, sans-serif" font-size="11" font-weight="bold" fill="white">Threat Scorer</text>
  <rect x="450" y="100" width="140" height="50" rx="8" fill="#c0392b" stroke="none" stroke-width="0" opacity="0.9"/>
  <text x="520" y="130" text-anchor="middle" font-family="Segoe UI, Arial, sans-serif" font-size="11" font-weight="bold" fill="white">Correlator</text>
  <rect x="450" y="190" width="140" height="60" rx="8" fill="#1a1a2e" stroke="#e94560" stroke-width="1.5" opacity="0.9"/>
  <text x="520" y="225" text-anchor="middle" font-family="Segoe UI, Arial, sans-serif" font-size="11" font-weight="bold" fill="white">LLM Engine</text>
  <rect x="650" y="100" width="130" height="60" rx="8" fill="#e94560" stroke="none" stroke-width="0" opacity="0.9"/>
  <text x="715" y="135" text-anchor="middle" font-family="Segoe UI, Arial, sans-serif" font-size="11" font-weight="bold" fill="white">Rich CLI Output</text>
</svg>